solid OpenSCAD_Model
  facet normal 0 -1 0
    outer loop
      vertex 244 28 66
      vertex 202 28 73
      vertex 202 28 66
    endloop
  endfacet
  facet normal 0 -1 0
    outer loop
      vertex 202 28 73
      vertex 244 28 66
      vertex 269 28 73
    endloop
  endfacet
  facet normal 0 -1 0
    outer loop
      vertex 269 28 58
      vertex 244 28 66
      vertex 244 28 58
    endloop
  endfacet
  facet normal 0 -1 0
    outer loop
      vertex 244 28 66
      vertex 269 28 58
      vertex 269 28 73
    endloop
  endfacet
  facet normal 0 -1 0
    outer loop
      vertex 59 28 73
      vertex 84 28 66
      vertex 126 28 73
    endloop
  endfacet
  facet normal 0 -1 0
    outer loop
      vertex 59 28 58
      vertex 84 28 66
      vertex 59 28 73
    endloop
  endfacet
  facet normal 0 -1 -0
    outer loop
      vertex 84 28 66
      vertex 59 28 58
      vertex 84 28 58
    endloop
  endfacet
  facet normal 0 -1 -0
    outer loop
      vertex 126 28 73
      vertex 84 28 66
      vertex 126 28 66
    endloop
  endfacet
  facet normal 0.924091 0.382172 -5.34613e-20
    outer loop
      vertex 271.819 36.0261 73
      vertex 271.719 36.2679 58
      vertex 271.719 36.2679 73
    endloop
  endfacet
  facet normal 0.924091 0.382172 -5.34613e-20
    outer loop
      vertex 271.719 36.2679 58
      vertex 271.819 36.0261 73
      vertex 271.819 36.0261 58
    endloop
  endfacet
  facet normal -0.976349 -0.216202 -4.26009e-21
    outer loop
      vertex 56.1022 30.2235 58
      vertex 56.0456 30.4791 73
      vertex 56.0456 30.4791 58
    endloop
  endfacet
  facet normal -0.976349 -0.216202 -4.26009e-21
    outer loop
      vertex 56.0456 30.4791 73
      vertex 56.1022 30.2235 58
      vertex 56.1022 30.2235 73
    endloop
  endfacet
  facet normal 0.536777 0.843724 -0
    outer loop
      vertex 270.721 37.4575 58
      vertex 270.5 37.5981 73
      vertex 270.721 37.4575 73
    endloop
  endfacet
  facet normal 0.536777 0.843724 0
    outer loop
      vertex 270.5 37.5981 73
      vertex 270.721 37.4575 58
      vertex 270.5 37.5981 58
    endloop
  endfacet
  facet normal 0 1 -0
    outer loop
      vertex 269 38 58
      vertex 202 38 73
      vertex 269 38 73
    endloop
  endfacet
  facet normal 0 1 0
    outer loop
      vertex 202 38 73
      vertex 269 38 58
      vertex 202 38 58
    endloop
  endfacet
  facet normal 0 1 -0
    outer loop
      vertex 126 38 58
      vertex 59 38 73
      vertex 126 38 73
    endloop
  endfacet
  facet normal 0 1 0
    outer loop
      vertex 59 38 73
      vertex 126 38 58
      vertex 59 38 58
    endloop
  endfacet
  facet normal -0.793305 -0.608824 -2.3122e-19
    outer loop
      vertex 56.7019 29.0716 58
      vertex 56.5425 29.2793 73
      vertex 56.5425 29.2793 58
    endloop
  endfacet
  facet normal -0.793305 -0.608824 -2.3122e-19
    outer loop
      vertex 56.5425 29.2793 73
      vertex 56.7019 29.0716 58
      vertex 56.7019 29.0716 73
    endloop
  endfacet
  facet normal 0.461834 0.886966 -0
    outer loop
      vertex 270.5 37.5981 58
      vertex 270.268 37.7189 73
      vertex 270.5 37.5981 73
    endloop
  endfacet
  facet normal 0.461834 0.886966 0
    outer loop
      vertex 270.268 37.7189 73
      vertex 270.5 37.5981 58
      vertex 270.268 37.7189 58
    endloop
  endfacet
  facet normal 0.953386 0.301753 -2.16195e-19
    outer loop
      vertex 271.898 35.7765 73
      vertex 271.819 36.0261 58
      vertex 271.819 36.0261 73
    endloop
  endfacet
  facet normal 0.953386 0.301753 -2.16195e-19
    outer loop
      vertex 271.819 36.0261 58
      vertex 271.898 35.7765 73
      vertex 271.898 35.7765 58
    endloop
  endfacet
  facet normal 0.97683 0.214016 1.2209e-19
    outer loop
      vertex 271.954 35.5209 73
      vertex 271.898 35.7765 58
      vertex 271.898 35.7765 73
    endloop
  endfacet
  facet normal 0.97683 0.214016 1.2209e-19
    outer loop
      vertex 271.898 35.7765 58
      vertex 271.954 35.5209 73
      vertex 271.954 35.5209 58
    endloop
  endfacet
  facet normal -0.537296 -0.843394 0
    outer loop
      vertex 57.2793 28.5425 58
      vertex 57.5 28.4019 73
      vertex 57.2793 28.5425 73
    endloop
  endfacet
  facet normal -0.537296 -0.843394 -0
    outer loop
      vertex 57.5 28.4019 73
      vertex 57.2793 28.5425 58
      vertex 57.5 28.4019 58
    endloop
  endfacet
  facet normal -0.675673 0.737202 0
    outer loop
      vertex 57.0716 37.2981 58
      vertex 56.8787 37.1213 73
      vertex 57.0716 37.2981 73
    endloop
  endfacet
  facet normal -0.675673 0.737202 0
    outer loop
      vertex 56.8787 37.1213 73
      vertex 57.0716 37.2981 58
      vertex 56.8787 37.1213 58
    endloop
  endfacet
  facet normal -0.675673 -0.737202 0
    outer loop
      vertex 56.8787 28.8787 58
      vertex 57.0716 28.7019 73
      vertex 56.8787 28.8787 73
    endloop
  endfacet
  facet normal -0.675673 -0.737202 -0
    outer loop
      vertex 57.0716 28.7019 73
      vertex 56.8787 28.8787 58
      vertex 57.0716 28.7019 58
    endloop
  endfacet
  facet normal 0.675482 0.737376 -0
    outer loop
      vertex 271.121 37.1213 58
      vertex 270.928 37.2981 73
      vertex 271.121 37.1213 73
    endloop
  endfacet
  facet normal 0.675482 0.737376 0
    outer loop
      vertex 270.928 37.2981 73
      vertex 271.121 37.1213 58
      vertex 270.928 37.2981 58
    endloop
  endfacet
  facet normal -0.843394 0.537296 1.16627e-19
    outer loop
      vertex 56.4019 36.5 58
      vertex 56.5425 36.7207 73
      vertex 56.5425 36.7207 58
    endloop
  endfacet
  facet normal -0.843394 0.537296 1.16627e-19
    outer loop
      vertex 56.5425 36.7207 73
      vertex 56.4019 36.5 58
      vertex 56.4019 36.5 73
    endloop
  endfacet
  facet normal -0.953715 -0.300711 4.26245e-19
    outer loop
      vertex 56.1809 29.9739 58
      vertex 56.1022 30.2235 73
      vertex 56.1022 30.2235 58
    endloop
  endfacet
  facet normal -0.953715 -0.300711 4.26245e-19
    outer loop
      vertex 56.1022 30.2235 73
      vertex 56.1809 29.9739 58
      vertex 56.1809 29.9739 73
    endloop
  endfacet
  facet normal -0.737202 0.675673 -7.94337e-19
    outer loop
      vertex 56.7019 36.9284 58
      vertex 56.8787 37.1213 73
      vertex 56.8787 37.1213 58
    endloop
  endfacet
  facet normal -0.737202 0.675673 -7.94337e-19
    outer loop
      vertex 56.8787 37.1213 73
      vertex 56.7019 36.9284 58
      vertex 56.7019 36.9284 73
    endloop
  endfacet
  facet normal 0.736821 -0.676088 -3.69045e-19
    outer loop
      vertex 271.121 28.8787 73
      vertex 271.298 29.0716 58
      vertex 271.298 29.0716 73
    endloop
  endfacet
  facet normal 0.736821 -0.676088 -3.69045e-19
    outer loop
      vertex 271.298 29.0716 58
      vertex 271.121 28.8787 73
      vertex 271.121 28.8787 58
    endloop
  endfacet
  facet normal -0.461678 0.887048 0
    outer loop
      vertex 57.7321 37.7189 58
      vertex 57.5 37.5981 73
      vertex 57.7321 37.7189 73
    endloop
  endfacet
  facet normal -0.461678 0.887048 0
    outer loop
      vertex 57.5 37.5981 73
      vertex 57.7321 37.7189 58
      vertex 57.5 37.5981 58
    endloop
  endfacet
  facet normal 0.97683 -0.214016 1.58064e-20
    outer loop
      vertex 271.898 30.2235 73
      vertex 271.954 30.4791 58
      vertex 271.954 30.4791 73
    endloop
  endfacet
  facet normal 0.97683 -0.214016 1.58064e-20
    outer loop
      vertex 271.954 30.4791 58
      vertex 271.898 30.2235 73
      vertex 271.898 30.2235 58
    endloop
  endfacet
  facet normal -0.216202 -0.976349 0
    outer loop
      vertex 58.2235 28.1022 58
      vertex 58.4791 28.0456 73
      vertex 58.2235 28.1022 73
    endloop
  endfacet
  facet normal -0.216202 -0.976349 -0
    outer loop
      vertex 58.4791 28.0456 73
      vertex 58.2235 28.1022 58
      vertex 58.4791 28.0456 58
    endloop
  endfacet
  facet normal -0.216202 0.976349 0
    outer loop
      vertex 58.4791 37.9544 58
      vertex 58.2235 37.8978 73
      vertex 58.4791 37.9544 73
    endloop
  endfacet
  facet normal -0.216202 0.976349 0
    outer loop
      vertex 58.2235 37.8978 73
      vertex 58.4791 37.9544 58
      vertex 58.2235 37.8978 58
    endloop
  endfacet
  facet normal 0.794043 -0.607862 -6.87754e-19
    outer loop
      vertex 271.298 29.0716 73
      vertex 271.457 29.2793 58
      vertex 271.457 29.2793 73
    endloop
  endfacet
  facet normal 0.794043 -0.607862 -6.87754e-19
    outer loop
      vertex 271.457 29.2793 58
      vertex 271.298 29.0716 73
      vertex 271.298 29.0716 58
    endloop
  endfacet
  facet normal 0.536777 -0.843724 0
    outer loop
      vertex 270.5 28.4019 58
      vertex 270.721 28.5425 73
      vertex 270.5 28.4019 73
    endloop
  endfacet
  facet normal 0.536777 -0.843724 0
    outer loop
      vertex 270.721 28.5425 73
      vertex 270.5 28.4019 58
      vertex 270.721 28.5425 58
    endloop
  endfacet
  facet normal 0.130415 -0.991459 0
    outer loop
      vertex 269.261 28.0114 58
      vertex 269.521 28.0456 73
      vertex 269.261 28.0114 73
    endloop
  endfacet
  facet normal 0.130415 -0.991459 0
    outer loop
      vertex 269.521 28.0456 73
      vertex 269.261 28.0114 58
      vertex 269.521 28.0456 58
    endloop
  endfacet
  facet normal -0.0435533 0.999051 0
    outer loop
      vertex 59 38 58
      vertex 58.7385 37.9886 73
      vertex 59 38 73
    endloop
  endfacet
  facet normal -0.0435533 0.999051 0
    outer loop
      vertex 58.7385 37.9886 73
      vertex 59 38 58
      vertex 58.7385 37.9886 58
    endloop
  endfacet
  facet normal 0.99102 0.133715 4.00966e-20
    outer loop
      vertex 271.989 35.2615 73
      vertex 271.954 35.5209 58
      vertex 271.954 35.5209 73
    endloop
  endfacet
  facet normal 0.99102 0.133715 4.00966e-20
    outer loop
      vertex 271.954 35.5209 58
      vertex 271.989 35.2615 73
      vertex 271.989 35.2615 58
    endloop
  endfacet
  facet normal -0.608824 -0.793305 0
    outer loop
      vertex 57.0716 28.7019 58
      vertex 57.2793 28.5425 73
      vertex 57.0716 28.7019 73
    endloop
  endfacet
  facet normal -0.608824 -0.793305 -0
    outer loop
      vertex 57.2793 28.5425 73
      vertex 57.0716 28.7019 58
      vertex 57.2793 28.5425 58
    endloop
  endfacet
  facet normal -0.953715 0.300711 -4.26245e-19
    outer loop
      vertex 56.1022 35.7765 58
      vertex 56.1809 36.0261 73
      vertex 56.1809 36.0261 58
    endloop
  endfacet
  facet normal -0.953715 0.300711 -4.26245e-19
    outer loop
      vertex 56.1809 36.0261 73
      vertex 56.1022 35.7765 58
      vertex 56.1022 35.7765 73
    endloop
  endfacet
  facet normal -0.999051 -0.0435533 -1.42799e-22
    outer loop
      vertex 56.0114 30.7385 58
      vertex 56 31 73
      vertex 56 31 58
    endloop
  endfacet
  facet normal -0.999051 -0.0435533 -1.42799e-22
    outer loop
      vertex 56 31 73
      vertex 56.0114 30.7385 58
      vertex 56.0114 30.7385 73
    endloop
  endfacet
  facet normal -0.608824 0.793305 0
    outer loop
      vertex 57.2793 37.4575 58
      vertex 57.0716 37.2981 73
      vertex 57.2793 37.4575 73
    endloop
  endfacet
  facet normal -0.608824 0.793305 0
    outer loop
      vertex 57.0716 37.2981 73
      vertex 57.2793 37.4575 58
      vertex 57.0716 37.2981 58
    endloop
  endfacet
  facet normal -0.99142 -0.130712 1.98956e-19
    outer loop
      vertex 56.0456 30.4791 58
      vertex 56.0114 30.7385 73
      vertex 56.0114 30.7385 58
    endloop
  endfacet
  facet normal -0.99142 -0.130712 1.98956e-19
    outer loop
      vertex 56.0114 30.7385 73
      vertex 56.0456 30.4791 58
      vertex 56.0456 30.4791 73
    endloop
  endfacet
  facet normal 0.0436366 0.999047 -0
    outer loop
      vertex 269.261 37.9886 58
      vertex 269 38 73
      vertex 269.261 37.9886 73
    endloop
  endfacet
  facet normal 0.0436366 0.999047 0
    outer loop
      vertex 269 38 73
      vertex 269.261 37.9886 58
      vertex 269 38 58
    endloop
  endfacet
  facet normal 0.382554 0.923933 -0
    outer loop
      vertex 270.268 37.7189 58
      vertex 270.026 37.8191 73
      vertex 270.268 37.7189 73
    endloop
  endfacet
  facet normal 0.382554 0.923933 0
    outer loop
      vertex 270.026 37.8191 73
      vertex 270.268 37.7189 58
      vertex 270.026 37.8191 58
    endloop
  endfacet
  facet normal 0.0436366 -0.999047 0
    outer loop
      vertex 269 28 58
      vertex 269.261 28.0114 73
      vertex 269 28 73
    endloop
  endfacet
  facet normal 0.0436366 -0.999047 0
    outer loop
      vertex 269.261 28.0114 73
      vertex 269 28 58
      vertex 269.261 28.0114 58
    endloop
  endfacet
  facet normal -0.0435533 -0.999051 0
    outer loop
      vertex 58.7385 28.0114 58
      vertex 59 28 73
      vertex 58.7385 28.0114 73
    endloop
  endfacet
  facet normal -0.0435533 -0.999051 -0
    outer loop
      vertex 59 28 73
      vertex 58.7385 28.0114 58
      vertex 59 28 58
    endloop
  endfacet
  facet normal -0.976349 0.216202 -3.24941e-20
    outer loop
      vertex 56.0456 35.5209 58
      vertex 56.1022 35.7765 73
      vertex 56.1022 35.7765 58
    endloop
  endfacet
  facet normal -0.976349 0.216202 -3.24941e-20
    outer loop
      vertex 56.1022 35.7765 73
      vertex 56.0456 35.5209 58
      vertex 56.0456 35.5209 73
    endloop
  endfacet
  facet normal 0.924091 -0.382172 4.07041e-19
    outer loop
      vertex 271.719 29.7321 73
      vertex 271.819 29.9739 58
      vertex 271.819 29.9739 73
    endloop
  endfacet
  facet normal 0.924091 -0.382172 4.07041e-19
    outer loop
      vertex 271.819 29.9739 58
      vertex 271.719 29.7321 73
      vertex 271.719 29.7321 58
    endloop
  endfacet
  facet normal 0.953386 -0.301753 2.16195e-19
    outer loop
      vertex 271.819 29.9739 73
      vertex 271.898 30.2235 58
      vertex 271.898 30.2235 73
    endloop
  endfacet
  facet normal 0.953386 -0.301753 2.16195e-19
    outer loop
      vertex 271.898 30.2235 58
      vertex 271.819 29.9739 73
      vertex 271.819 29.9739 58
    endloop
  endfacet
  facet normal 0.610118 -0.792311 0
    outer loop
      vertex 270.721 28.5425 58
      vertex 270.928 28.7019 73
      vertex 270.721 28.5425 73
    endloop
  endfacet
  facet normal 0.610118 -0.792311 0
    outer loop
      vertex 270.928 28.7019 73
      vertex 270.721 28.5425 58
      vertex 270.928 28.7019 58
    endloop
  endfacet
  facet normal 0.999116 -0.0420278 5.33624e-20
    outer loop
      vertex 271.989 30.7385 73
      vertex 272 31 58
      vertex 272 31 73
    endloop
  endfacet
  facet normal 0.999116 -0.0420278 5.33624e-20
    outer loop
      vertex 272 31 58
      vertex 271.989 30.7385 73
      vertex 271.989 30.7385 58
    endloop
  endfacet
  facet normal 0.736821 0.676088 8.07253e-19
    outer loop
      vertex 271.298 36.9284 73
      vertex 271.121 37.1213 58
      vertex 271.121 37.1213 73
    endloop
  endfacet
  facet normal 0.736821 0.676088 8.07253e-19
    outer loop
      vertex 271.121 37.1213 58
      vertex 271.298 36.9284 73
      vertex 271.298 36.9284 58
    endloop
  endfacet
  facet normal 0.675482 -0.737376 0
    outer loop
      vertex 270.928 28.7019 58
      vertex 271.121 28.8787 73
      vertex 270.928 28.7019 73
    endloop
  endfacet
  facet normal 0.675482 -0.737376 0
    outer loop
      vertex 271.121 28.8787 73
      vertex 270.928 28.7019 58
      vertex 271.121 28.8787 58
    endloop
  endfacet
  facet normal 0.382554 -0.923933 0
    outer loop
      vertex 270.026 28.1809 58
      vertex 270.268 28.2811 73
      vertex 270.026 28.1809 73
    endloop
  endfacet
  facet normal 0.382554 -0.923933 0
    outer loop
      vertex 270.268 28.2811 73
      vertex 270.026 28.1809 58
      vertex 270.268 28.2811 58
    endloop
  endfacet
  facet normal 0.130415 0.991459 -0
    outer loop
      vertex 269.521 37.9544 58
      vertex 269.261 37.9886 73
      vertex 269.521 37.9544 73
    endloop
  endfacet
  facet normal 0.130415 0.991459 0
    outer loop
      vertex 269.261 37.9886 73
      vertex 269.521 37.9544 58
      vertex 269.261 37.9886 58
    endloop
  endfacet
  facet normal -0.130712 -0.99142 0
    outer loop
      vertex 58.4791 28.0456 58
      vertex 58.7385 28.0114 73
      vertex 58.4791 28.0456 73
    endloop
  endfacet
  facet normal -0.130712 -0.99142 -0
    outer loop
      vertex 58.7385 28.0114 73
      vertex 58.4791 28.0456 58
      vertex 58.7385 28.0114 58
    endloop
  endfacet
  facet normal -0.300711 0.953715 0
    outer loop
      vertex 58.2235 37.8978 58
      vertex 57.9739 37.8191 73
      vertex 58.2235 37.8978 73
    endloop
  endfacet
  facet normal -0.300711 0.953715 0
    outer loop
      vertex 57.9739 37.8191 73
      vertex 58.2235 37.8978 58
      vertex 57.9739 37.8191 58
    endloop
  endfacet
  facet normal 1 -0 0
    outer loop
      vertex 272 31 73
      vertex 272 35 58
      vertex 272 35 73
    endloop
  endfacet
  facet normal 1 0 0
    outer loop
      vertex 272 35 58
      vertex 272 31 73
      vertex 272 31 58
    endloop
  endfacet
  facet normal 0.886735 0.462279 -5.29577e-20
    outer loop
      vertex 271.719 36.2679 73
      vertex 271.598 36.5 58
      vertex 271.598 36.5 73
    endloop
  endfacet
  facet normal 0.886735 0.462279 -5.29577e-20
    outer loop
      vertex 271.598 36.5 58
      vertex 271.719 36.2679 73
      vertex 271.719 36.2679 58
    endloop
  endfacet
  facet normal -1 0 0
    outer loop
      vertex 56 31 58
      vertex 56 35 73
      vertex 56 35 58
    endloop
  endfacet
  facet normal -1 -0 0
    outer loop
      vertex 56 35 73
      vertex 56 31 58
      vertex 56 31 73
    endloop
  endfacet
  facet normal -0 0 1
    outer loop
      vertex 59 38 73
      vertex 126 28 73
      vertex 126 38 73
    endloop
  endfacet
  facet normal 0 0 1
    outer loop
      vertex 59 38 73
      vertex 59 28 73
      vertex 126 28 73
    endloop
  endfacet
  facet normal 0 0 1
    outer loop
      vertex 56 35 73
      vertex 59 38 73
      vertex 58.7385 37.9886 73
    endloop
  endfacet
  facet normal 0 0 1
    outer loop
      vertex 59 38 73
      vertex 56 35 73
      vertex 59 28 73
    endloop
  endfacet
  facet normal 0 0 1
    outer loop
      vertex 56 35 73
      vertex 58.7385 37.9886 73
      vertex 58.4791 37.9544 73
    endloop
  endfacet
  facet normal -0 0 1
    outer loop
      vertex 56 31 73
      vertex 59 28 73
      vertex 56 35 73
    endloop
  endfacet
  facet normal 0 0 1
    outer loop
      vertex 56 35 73
      vertex 58.4791 37.9544 73
      vertex 58.2235 37.8978 73
    endloop
  endfacet
  facet normal 0 0 1
    outer loop
      vertex 59 28 73
      vertex 56 31 73
      vertex 58.7385 28.0114 73
    endloop
  endfacet
  facet normal 0 0 1
    outer loop
      vertex 56 35 73
      vertex 58.2235 37.8978 73
      vertex 57.9739 37.8191 73
    endloop
  endfacet
  facet normal 0 0 1
    outer loop
      vertex 58.7385 28.0114 73
      vertex 56 31 73
      vertex 58.4791 28.0456 73
    endloop
  endfacet
  facet normal 0 0 1
    outer loop
      vertex 56 35 73
      vertex 57.9739 37.8191 73
      vertex 57.7321 37.7189 73
    endloop
  endfacet
  facet normal 0 0 1
    outer loop
      vertex 58.4791 28.0456 73
      vertex 56 31 73
      vertex 58.2235 28.1022 73
    endloop
  endfacet
  facet normal 0 0 1
    outer loop
      vertex 56 35 73
      vertex 57.7321 37.7189 73
      vertex 57.5 37.5981 73
    endloop
  endfacet
  facet normal 0 0 1
    outer loop
      vertex 58.2235 28.1022 73
      vertex 56 31 73
      vertex 57.9739 28.1809 73
    endloop
  endfacet
  facet normal 0 0 1
    outer loop
      vertex 56 35 73
      vertex 57.5 37.5981 73
      vertex 57.2793 37.4575 73
    endloop
  endfacet
  facet normal 0 0 1
    outer loop
      vertex 57.9739 28.1809 73
      vertex 56 31 73
      vertex 57.7321 28.2811 73
    endloop
  endfacet
  facet normal 0 0 1
    outer loop
      vertex 56 35 73
      vertex 57.2793 37.4575 73
      vertex 57.0716 37.2981 73
    endloop
  endfacet
  facet normal 0 0 1
    outer loop
      vertex 57.7321 28.2811 73
      vertex 56 31 73
      vertex 57.5 28.4019 73
    endloop
  endfacet
  facet normal 0 0 1
    outer loop
      vertex 56 35 73
      vertex 57.0716 37.2981 73
      vertex 56.8787 37.1213 73
    endloop
  endfacet
  facet normal 0 0 1
    outer loop
      vertex 57.5 28.4019 73
      vertex 56 31 73
      vertex 57.2793 28.5425 73
    endloop
  endfacet
  facet normal 0 0 1
    outer loop
      vertex 56 35 73
      vertex 56.8787 37.1213 73
      vertex 56.7019 36.9284 73
    endloop
  endfacet
  facet normal 0 0 1
    outer loop
      vertex 57.2793 28.5425 73
      vertex 56 31 73
      vertex 57.0716 28.7019 73
    endloop
  endfacet
  facet normal 0 0 1
    outer loop
      vertex 56 35 73
      vertex 56.7019 36.9284 73
      vertex 56.5425 36.7207 73
    endloop
  endfacet
  facet normal 0 0 1
    outer loop
      vertex 57.0716 28.7019 73
      vertex 56 31 73
      vertex 56.8787 28.8787 73
    endloop
  endfacet
  facet normal 0 0 1
    outer loop
      vertex 56 35 73
      vertex 56.5425 36.7207 73
      vertex 56.4019 36.5 73
    endloop
  endfacet
  facet normal 0 0 1
    outer loop
      vertex 56.8787 28.8787 73
      vertex 56 31 73
      vertex 56.7019 29.0716 73
    endloop
  endfacet
  facet normal 0 0 1
    outer loop
      vertex 56 35 73
      vertex 56.4019 36.5 73
      vertex 56.2811 36.2679 73
    endloop
  endfacet
  facet normal 0 0 1
    outer loop
      vertex 56.7019 29.0716 73
      vertex 56 31 73
      vertex 56.5425 29.2793 73
    endloop
  endfacet
  facet normal 0 0 1
    outer loop
      vertex 56 35 73
      vertex 56.2811 36.2679 73
      vertex 56.1809 36.0261 73
    endloop
  endfacet
  facet normal 0 0 1
    outer loop
      vertex 56.5425 29.2793 73
      vertex 56 31 73
      vertex 56.4019 29.5 73
    endloop
  endfacet
  facet normal 0 0 1
    outer loop
      vertex 56 35 73
      vertex 56.1809 36.0261 73
      vertex 56.1022 35.7765 73
    endloop
  endfacet
  facet normal 0 0 1
    outer loop
      vertex 56.4019 29.5 73
      vertex 56 31 73
      vertex 56.2811 29.7321 73
    endloop
  endfacet
  facet normal 0 0 1
    outer loop
      vertex 56 35 73
      vertex 56.1022 35.7765 73
      vertex 56.0456 35.5209 73
    endloop
  endfacet
  facet normal 0 0 1
    outer loop
      vertex 56.2811 29.7321 73
      vertex 56 31 73
      vertex 56.1809 29.9739 73
    endloop
  endfacet
  facet normal 0 0 1
    outer loop
      vertex 56 35 73
      vertex 56.0456 35.5209 73
      vertex 56.0114 35.2615 73
    endloop
  endfacet
  facet normal 0 0 1
    outer loop
      vertex 56.1809 29.9739 73
      vertex 56 31 73
      vertex 56.1022 30.2235 73
    endloop
  endfacet
  facet normal 0 0 1
    outer loop
      vertex 56.1022 30.2235 73
      vertex 56 31 73
      vertex 56.0456 30.4791 73
    endloop
  endfacet
  facet normal 0 0 1
    outer loop
      vertex 56.0456 30.4791 73
      vertex 56 31 73
      vertex 56.0114 30.7385 73
    endloop
  endfacet
  facet normal 0 0 1
    outer loop
      vertex 269 38 73
      vertex 272 35 73
      vertex 271.989 35.2615 73
    endloop
  endfacet
  facet normal 0 0 1
    outer loop
      vertex 272 35 73
      vertex 269 38 73
      vertex 272 31 73
    endloop
  endfacet
  facet normal 0 0 1
    outer loop
      vertex 269 38 73
      vertex 271.989 35.2615 73
      vertex 271.954 35.5209 73
    endloop
  endfacet
  facet normal 0 0 1
    outer loop
      vertex 269 28 73
      vertex 272 31 73
      vertex 269 38 73
    endloop
  endfacet
  facet normal 0 0 1
    outer loop
      vertex 269 38 73
      vertex 271.954 35.5209 73
      vertex 271.898 35.7765 73
    endloop
  endfacet
  facet normal 0 0 1
    outer loop
      vertex 272 31 73
      vertex 269 28 73
      vertex 271.989 30.7385 73
    endloop
  endfacet
  facet normal 0 0 1
    outer loop
      vertex 269 38 73
      vertex 271.898 35.7765 73
      vertex 271.819 36.0261 73
    endloop
  endfacet
  facet normal 0 0 1
    outer loop
      vertex 271.989 30.7385 73
      vertex 269 28 73
      vertex 271.954 30.4791 73
    endloop
  endfacet
  facet normal 0 0 1
    outer loop
      vertex 269 38 73
      vertex 271.819 36.0261 73
      vertex 271.719 36.2679 73
    endloop
  endfacet
  facet normal 0 0 1
    outer loop
      vertex 271.954 30.4791 73
      vertex 269 28 73
      vertex 271.898 30.2235 73
    endloop
  endfacet
  facet normal 0 0 1
    outer loop
      vertex 269 38 73
      vertex 271.719 36.2679 73
      vertex 271.598 36.5 73
    endloop
  endfacet
  facet normal 0 0 1
    outer loop
      vertex 271.898 30.2235 73
      vertex 269 28 73
      vertex 271.819 29.9739 73
    endloop
  endfacet
  facet normal 0 0 1
    outer loop
      vertex 269 38 73
      vertex 271.598 36.5 73
      vertex 271.457 36.7207 73
    endloop
  endfacet
  facet normal 0 0 1
    outer loop
      vertex 271.819 29.9739 73
      vertex 269 28 73
      vertex 271.719 29.7321 73
    endloop
  endfacet
  facet normal 0 0 1
    outer loop
      vertex 269 38 73
      vertex 271.457 36.7207 73
      vertex 271.298 36.9284 73
    endloop
  endfacet
  facet normal 0 0 1
    outer loop
      vertex 271.719 29.7321 73
      vertex 269 28 73
      vertex 271.598 29.5 73
    endloop
  endfacet
  facet normal 0 0 1
    outer loop
      vertex 269 38 73
      vertex 271.298 36.9284 73
      vertex 271.121 37.1213 73
    endloop
  endfacet
  facet normal 0 0 1
    outer loop
      vertex 271.598 29.5 73
      vertex 269 28 73
      vertex 271.457 29.2793 73
    endloop
  endfacet
  facet normal 0 0 1
    outer loop
      vertex 269 38 73
      vertex 271.121 37.1213 73
      vertex 270.928 37.2981 73
    endloop
  endfacet
  facet normal 0 0 1
    outer loop
      vertex 271.457 29.2793 73
      vertex 269 28 73
      vertex 271.298 29.0716 73
    endloop
  endfacet
  facet normal 0 0 1
    outer loop
      vertex 269 38 73
      vertex 270.928 37.2981 73
      vertex 270.721 37.4575 73
    endloop
  endfacet
  facet normal 0 0 1
    outer loop
      vertex 271.298 29.0716 73
      vertex 269 28 73
      vertex 271.121 28.8787 73
    endloop
  endfacet
  facet normal 0 0 1
    outer loop
      vertex 269 38 73
      vertex 270.721 37.4575 73
      vertex 270.5 37.5981 73
    endloop
  endfacet
  facet normal 0 0 1
    outer loop
      vertex 271.121 28.8787 73
      vertex 269 28 73
      vertex 270.928 28.7019 73
    endloop
  endfacet
  facet normal 0 0 1
    outer loop
      vertex 269 38 73
      vertex 270.5 37.5981 73
      vertex 270.268 37.7189 73
    endloop
  endfacet
  facet normal 0 0 1
    outer loop
      vertex 270.928 28.7019 73
      vertex 269 28 73
      vertex 270.721 28.5425 73
    endloop
  endfacet
  facet normal 0 0 1
    outer loop
      vertex 269 38 73
      vertex 270.268 37.7189 73
      vertex 270.026 37.8191 73
    endloop
  endfacet
  facet normal 0 0 1
    outer loop
      vertex 270.721 28.5425 73
      vertex 269 28 73
      vertex 270.5 28.4019 73
    endloop
  endfacet
  facet normal 0 0 1
    outer loop
      vertex 269 38 73
      vertex 270.026 37.8191 73
      vertex 269.776 37.8978 73
    endloop
  endfacet
  facet normal 0 0 1
    outer loop
      vertex 270.5 28.4019 73
      vertex 269 28 73
      vertex 270.268 28.2811 73
    endloop
  endfacet
  facet normal 0 0 1
    outer loop
      vertex 269 38 73
      vertex 269.776 37.8978 73
      vertex 269.521 37.9544 73
    endloop
  endfacet
  facet normal 0 0 1
    outer loop
      vertex 270.268 28.2811 73
      vertex 269 28 73
      vertex 270.026 28.1809 73
    endloop
  endfacet
  facet normal 0 0 1
    outer loop
      vertex 269 38 73
      vertex 269.521 37.9544 73
      vertex 269.261 37.9886 73
    endloop
  endfacet
  facet normal 0 0 1
    outer loop
      vertex 270.026 28.1809 73
      vertex 269 28 73
      vertex 269.776 28.1022 73
    endloop
  endfacet
  facet normal 0 0 1
    outer loop
      vertex 269.776 28.1022 73
      vertex 269 28 73
      vertex 269.521 28.0456 73
    endloop
  endfacet
  facet normal 0 0 1
    outer loop
      vertex 269.521 28.0456 73
      vertex 269 28 73
      vertex 269.261 28.0114 73
    endloop
  endfacet
  facet normal -0 0 1
    outer loop
      vertex 202 38 73
      vertex 269 28 73
      vertex 269 38 73
    endloop
  endfacet
  facet normal 0 0 1
    outer loop
      vertex 269 28 73
      vertex 202 38 73
      vertex 202 28 73
    endloop
  endfacet
  facet normal 0.461834 -0.886966 0
    outer loop
      vertex 270.268 28.2811 58
      vertex 270.5 28.4019 73
      vertex 270.268 28.2811 73
    endloop
  endfacet
  facet normal 0.461834 -0.886966 0
    outer loop
      vertex 270.5 28.4019 73
      vertex 270.268 28.2811 58
      vertex 270.5 28.4019 58
    endloop
  endfacet
  facet normal 0.842701 0.538382 -1.27062e-20
    outer loop
      vertex 271.598 36.5 73
      vertex 271.457 36.7207 58
      vertex 271.457 36.7207 73
    endloop
  endfacet
  facet normal 0.842701 0.538382 -1.27062e-20
    outer loop
      vertex 271.457 36.7207 58
      vertex 271.598 36.5 73
      vertex 271.598 36.5 58
    endloop
  endfacet
  facet normal -0.382824 0.923821 0
    outer loop
      vertex 57.9739 37.8191 58
      vertex 57.7321 37.7189 73
      vertex 57.9739 37.8191 73
    endloop
  endfacet
  facet normal -0.382824 0.923821 0
    outer loop
      vertex 57.7321 37.7189 73
      vertex 57.9739 37.8191 58
      vertex 57.7321 37.7189 58
    endloop
  endfacet
  facet normal -0.130712 0.99142 0
    outer loop
      vertex 58.7385 37.9886 58
      vertex 58.4791 37.9544 73
      vertex 58.7385 37.9886 73
    endloop
  endfacet
  facet normal -0.130712 0.99142 0
    outer loop
      vertex 58.4791 37.9544 73
      vertex 58.7385 37.9886 58
      vertex 58.4791 37.9544 58
    endloop
  endfacet
  facet normal -0.537296 0.843394 0
    outer loop
      vertex 57.5 37.5981 58
      vertex 57.2793 37.4575 73
      vertex 57.5 37.5981 73
    endloop
  endfacet
  facet normal -0.537296 0.843394 0
    outer loop
      vertex 57.2793 37.4575 73
      vertex 57.5 37.5981 58
      vertex 57.2793 37.4575 58
    endloop
  endfacet
  facet normal -0.737202 -0.675673 7.17965e-19
    outer loop
      vertex 56.8787 28.8787 58
      vertex 56.7019 29.0716 73
      vertex 56.7019 29.0716 58
    endloop
  endfacet
  facet normal -0.737202 -0.675673 7.17965e-19
    outer loop
      vertex 56.7019 29.0716 73
      vertex 56.8787 28.8787 58
      vertex 56.8787 28.8787 73
    endloop
  endfacet
  facet normal 0.794043 0.607862 -3.37969e-20
    outer loop
      vertex 271.457 36.7207 73
      vertex 271.298 36.9284 58
      vertex 271.298 36.9284 73
    endloop
  endfacet
  facet normal 0.794043 0.607862 -3.37969e-20
    outer loop
      vertex 271.298 36.9284 58
      vertex 271.457 36.7207 73
      vertex 271.457 36.7207 58
    endloop
  endfacet
  facet normal 0.300273 -0.953853 0
    outer loop
      vertex 269.776 28.1022 58
      vertex 270.026 28.1809 73
      vertex 269.776 28.1022 73
    endloop
  endfacet
  facet normal 0.300273 -0.953853 0
    outer loop
      vertex 270.026 28.1809 73
      vertex 269.776 28.1022 58
      vertex 270.026 28.1809 58
    endloop
  endfacet
  facet normal -0.793305 0.608824 -4.52909e-19
    outer loop
      vertex 56.5425 36.7207 58
      vertex 56.7019 36.9284 73
      vertex 56.7019 36.9284 58
    endloop
  endfacet
  facet normal -0.793305 0.608824 -4.52909e-19
    outer loop
      vertex 56.7019 36.9284 73
      vertex 56.5425 36.7207 58
      vertex 56.5425 36.7207 73
    endloop
  endfacet
  facet normal 0.300273 0.953853 -0
    outer loop
      vertex 270.026 37.8191 58
      vertex 269.776 37.8978 73
      vertex 270.026 37.8191 73
    endloop
  endfacet
  facet normal 0.300273 0.953853 0
    outer loop
      vertex 269.776 37.8978 73
      vertex 270.026 37.8191 58
      vertex 269.776 37.8978 58
    endloop
  endfacet
  facet normal -0.999051 0.0435533 -4.28031e-20
    outer loop
      vertex 56 35 58
      vertex 56.0114 35.2615 73
      vertex 56.0114 35.2615 58
    endloop
  endfacet
  facet normal -0.999051 0.0435533 -4.28031e-20
    outer loop
      vertex 56.0114 35.2615 73
      vertex 56 35 58
      vertex 56 35 73
    endloop
  endfacet
  facet normal -0.923821 0.382824 -3.4593e-19
    outer loop
      vertex 56.1809 36.0261 58
      vertex 56.2811 36.2679 73
      vertex 56.2811 36.2679 58
    endloop
  endfacet
  facet normal -0.923821 0.382824 -3.4593e-19
    outer loop
      vertex 56.2811 36.2679 73
      vertex 56.1809 36.0261 58
      vertex 56.1809 36.0261 73
    endloop
  endfacet
  facet normal -0.887048 0.461678 2.76407e-19
    outer loop
      vertex 56.2811 36.2679 58
      vertex 56.4019 36.5 73
      vertex 56.4019 36.5 58
    endloop
  endfacet
  facet normal -0.887048 0.461678 2.76407e-19
    outer loop
      vertex 56.4019 36.5 73
      vertex 56.2811 36.2679 58
      vertex 56.2811 36.2679 73
    endloop
  endfacet
  facet normal -0.300711 -0.953715 0
    outer loop
      vertex 57.9739 28.1809 58
      vertex 58.2235 28.1022 73
      vertex 57.9739 28.1809 73
    endloop
  endfacet
  facet normal -0.300711 -0.953715 -0
    outer loop
      vertex 58.2235 28.1022 73
      vertex 57.9739 28.1809 58
      vertex 58.2235 28.1022 58
    endloop
  endfacet
  facet normal 0.999116 0.0420278 -4.09903e-20
    outer loop
      vertex 272 35 73
      vertex 271.989 35.2615 58
      vertex 271.989 35.2615 73
    endloop
  endfacet
  facet normal 0.999116 0.0420278 -4.09903e-20
    outer loop
      vertex 271.989 35.2615 58
      vertex 272 35 73
      vertex 272 35 58
    endloop
  endfacet
  facet normal 0.216687 0.976241 -0
    outer loop
      vertex 269.776 37.8978 58
      vertex 269.521 37.9544 73
      vertex 269.776 37.8978 73
    endloop
  endfacet
  facet normal 0.216687 0.976241 0
    outer loop
      vertex 269.521 37.9544 73
      vertex 269.776 37.8978 58
      vertex 269.521 37.9544 58
    endloop
  endfacet
  facet normal 0.99102 -0.133715 -4.00966e-20
    outer loop
      vertex 271.954 30.4791 73
      vertex 271.989 30.7385 58
      vertex 271.989 30.7385 73
    endloop
  endfacet
  facet normal 0.99102 -0.133715 -4.00966e-20
    outer loop
      vertex 271.989 30.7385 58
      vertex 271.954 30.4791 73
      vertex 271.954 30.4791 58
    endloop
  endfacet
  facet normal -0.99142 0.130712 -1.98956e-19
    outer loop
      vertex 56.0114 35.2615 58
      vertex 56.0456 35.5209 73
      vertex 56.0456 35.5209 58
    endloop
  endfacet
  facet normal -0.99142 0.130712 -1.98956e-19
    outer loop
      vertex 56.0456 35.5209 73
      vertex 56.0114 35.2615 58
      vertex 56.0114 35.2615 73
    endloop
  endfacet
  facet normal 0.842701 -0.538382 1.27062e-20
    outer loop
      vertex 271.457 29.2793 73
      vertex 271.598 29.5 58
      vertex 271.598 29.5 73
    endloop
  endfacet
  facet normal 0.842701 -0.538382 1.27062e-20
    outer loop
      vertex 271.598 29.5 58
      vertex 271.457 29.2793 73
      vertex 271.457 29.2793 58
    endloop
  endfacet
  facet normal 0.886735 -0.462279 1.37789e-19
    outer loop
      vertex 271.598 29.5 73
      vertex 271.719 29.7321 58
      vertex 271.719 29.7321 73
    endloop
  endfacet
  facet normal 0.886735 -0.462279 1.37789e-19
    outer loop
      vertex 271.719 29.7321 58
      vertex 271.598 29.5 73
      vertex 271.598 29.5 58
    endloop
  endfacet
  facet normal -0.843394 -0.537296 -1.16627e-19
    outer loop
      vertex 56.5425 29.2793 58
      vertex 56.4019 29.5 73
      vertex 56.4019 29.5 58
    endloop
  endfacet
  facet normal -0.843394 -0.537296 -1.16627e-19
    outer loop
      vertex 56.4019 29.5 73
      vertex 56.5425 29.2793 58
      vertex 56.5425 29.2793 73
    endloop
  endfacet
  facet normal -0.923821 -0.382824 -1.88527e-19
    outer loop
      vertex 56.2811 29.7321 58
      vertex 56.1809 29.9739 73
      vertex 56.1809 29.9739 58
    endloop
  endfacet
  facet normal -0.923821 -0.382824 -1.88527e-19
    outer loop
      vertex 56.1809 29.9739 73
      vertex 56.2811 29.7321 58
      vertex 56.2811 29.7321 73
    endloop
  endfacet
  facet normal 0.216687 -0.976241 0
    outer loop
      vertex 269.521 28.0456 58
      vertex 269.776 28.1022 73
      vertex 269.521 28.0456 73
    endloop
  endfacet
  facet normal 0.216687 -0.976241 0
    outer loop
      vertex 269.776 28.1022 73
      vertex 269.521 28.0456 58
      vertex 269.776 28.1022 58
    endloop
  endfacet
  facet normal -0.887048 -0.461678 3.41669e-19
    outer loop
      vertex 56.4019 29.5 58
      vertex 56.2811 29.7321 73
      vertex 56.2811 29.7321 58
    endloop
  endfacet
  facet normal -0.887048 -0.461678 3.41669e-19
    outer loop
      vertex 56.2811 29.7321 73
      vertex 56.4019 29.5 58
      vertex 56.4019 29.5 73
    endloop
  endfacet
  facet normal -0.461678 -0.887048 0
    outer loop
      vertex 57.5 28.4019 58
      vertex 57.7321 28.2811 73
      vertex 57.5 28.4019 73
    endloop
  endfacet
  facet normal -0.461678 -0.887048 -0
    outer loop
      vertex 57.7321 28.2811 73
      vertex 57.5 28.4019 58
      vertex 57.7321 28.2811 58
    endloop
  endfacet
  facet normal -0.382824 -0.923821 0
    outer loop
      vertex 57.7321 28.2811 58
      vertex 57.9739 28.1809 73
      vertex 57.7321 28.2811 73
    endloop
  endfacet
  facet normal -0.382824 -0.923821 -0
    outer loop
      vertex 57.9739 28.1809 73
      vertex 57.7321 28.2811 58
      vertex 57.9739 28.1809 58
    endloop
  endfacet
  facet normal 0.610118 0.792311 -0
    outer loop
      vertex 270.928 37.2981 58
      vertex 270.721 37.4575 73
      vertex 270.928 37.2981 73
    endloop
  endfacet
  facet normal 0.610118 0.792311 0
    outer loop
      vertex 270.721 37.4575 73
      vertex 270.928 37.2981 58
      vertex 270.721 37.4575 58
    endloop
  endfacet
  facet normal 0 0 -1
    outer loop
      vertex 87 20 58
      vertex 126 38 58
      vertex 126 20 58
    endloop
  endfacet
  facet normal 0 0 -1
    outer loop
      vertex 84 23 58
      vertex 87 20 58
      vertex 86.7385 20.0114 58
    endloop
  endfacet
  facet normal 0 0 -1
    outer loop
      vertex 84 23 58
      vertex 86.7385 20.0114 58
      vertex 86.4791 20.0456 58
    endloop
  endfacet
  facet normal 0 0 -1
    outer loop
      vertex 84 23 58
      vertex 86.4791 20.0456 58
      vertex 86.2235 20.1022 58
    endloop
  endfacet
  facet normal 0 0 -1
    outer loop
      vertex 84 23 58
      vertex 86.2235 20.1022 58
      vertex 85.9739 20.1809 58
    endloop
  endfacet
  facet normal 0 0 -1
    outer loop
      vertex 84 23 58
      vertex 85.9739 20.1809 58
      vertex 85.7321 20.2811 58
    endloop
  endfacet
  facet normal 0 0 -1
    outer loop
      vertex 84 23 58
      vertex 85.7321 20.2811 58
      vertex 85.5 20.4019 58
    endloop
  endfacet
  facet normal 0 0 -1
    outer loop
      vertex 84 23 58
      vertex 85.5 20.4019 58
      vertex 85.2793 20.5425 58
    endloop
  endfacet
  facet normal 0 0 -1
    outer loop
      vertex 84 23 58
      vertex 85.2793 20.5425 58
      vertex 85.0716 20.7019 58
    endloop
  endfacet
  facet normal 0 0 -1
    outer loop
      vertex 84 23 58
      vertex 85.0716 20.7019 58
      vertex 84.8787 20.8787 58
    endloop
  endfacet
  facet normal 0 0 -1
    outer loop
      vertex 84 23 58
      vertex 84.8787 20.8787 58
      vertex 84.7019 21.0716 58
    endloop
  endfacet
  facet normal 0 0 -1
    outer loop
      vertex 84 23 58
      vertex 84.7019 21.0716 58
      vertex 84.5425 21.2793 58
    endloop
  endfacet
  facet normal 0 0 -1
    outer loop
      vertex 84 23 58
      vertex 84.5425 21.2793 58
      vertex 84.4019 21.5 58
    endloop
  endfacet
  facet normal 0 0 -1
    outer loop
      vertex 84 23 58
      vertex 84.4019 21.5 58
      vertex 84.2811 21.7321 58
    endloop
  endfacet
  facet normal 0 0 -1
    outer loop
      vertex 84 23 58
      vertex 84.2811 21.7321 58
      vertex 84.1809 21.9739 58
    endloop
  endfacet
  facet normal 0 0 -1
    outer loop
      vertex 84 23 58
      vertex 84.1809 21.9739 58
      vertex 84.1022 22.2235 58
    endloop
  endfacet
  facet normal 0 0 -1
    outer loop
      vertex 84 23 58
      vertex 84.1022 22.2235 58
      vertex 84.0456 22.4791 58
    endloop
  endfacet
  facet normal 0 0 -1
    outer loop
      vertex 84 23 58
      vertex 84.0456 22.4791 58
      vertex 84.0114 22.7385 58
    endloop
  endfacet
  facet normal 0 0 -1
    outer loop
      vertex 87 20 58
      vertex 84 23 58
      vertex 84 28 58
    endloop
  endfacet
  facet normal 0 0 -1
    outer loop
      vertex 87 20 58
      vertex 84 28 58
      vertex 126 38 58
    endloop
  endfacet
  facet normal 0 0 -1
    outer loop
      vertex 59 38 58
      vertex 84 28 58
      vertex 59 28 58
    endloop
  endfacet
  facet normal 0 0 -1
    outer loop
      vertex 84 28 58
      vertex 59 38 58
      vertex 126 38 58
    endloop
  endfacet
  facet normal 0 0 -1
    outer loop
      vertex 56 31 58
      vertex 59 28 58
      vertex 58.7385 28.0114 58
    endloop
  endfacet
  facet normal 0 0 -1
    outer loop
      vertex 59 28 58
      vertex 56 31 58
      vertex 59 38 58
    endloop
  endfacet
  facet normal 0 0 -1
    outer loop
      vertex 56 31 58
      vertex 58.7385 28.0114 58
      vertex 58.4791 28.0456 58
    endloop
  endfacet
  facet normal 0 0 -1
    outer loop
      vertex 56 35 58
      vertex 59 38 58
      vertex 56 31 58
    endloop
  endfacet
  facet normal 0 0 -1
    outer loop
      vertex 56 31 58
      vertex 58.4791 28.0456 58
      vertex 58.2235 28.1022 58
    endloop
  endfacet
  facet normal 0 0 -1
    outer loop
      vertex 59 38 58
      vertex 56 35 58
      vertex 58.7385 37.9886 58
    endloop
  endfacet
  facet normal 0 0 -1
    outer loop
      vertex 56 31 58
      vertex 58.2235 28.1022 58
      vertex 57.9739 28.1809 58
    endloop
  endfacet
  facet normal 0 0 -1
    outer loop
      vertex 58.7385 37.9886 58
      vertex 56 35 58
      vertex 58.4791 37.9544 58
    endloop
  endfacet
  facet normal 0 0 -1
    outer loop
      vertex 56 31 58
      vertex 57.9739 28.1809 58
      vertex 57.7321 28.2811 58
    endloop
  endfacet
  facet normal 0 0 -1
    outer loop
      vertex 58.4791 37.9544 58
      vertex 56 35 58
      vertex 58.2235 37.8978 58
    endloop
  endfacet
  facet normal 0 0 -1
    outer loop
      vertex 56 31 58
      vertex 57.7321 28.2811 58
      vertex 57.5 28.4019 58
    endloop
  endfacet
  facet normal 0 0 -1
    outer loop
      vertex 58.2235 37.8978 58
      vertex 56 35 58
      vertex 57.9739 37.8191 58
    endloop
  endfacet
  facet normal 0 0 -1
    outer loop
      vertex 56 31 58
      vertex 57.5 28.4019 58
      vertex 57.2793 28.5425 58
    endloop
  endfacet
  facet normal 0 0 -1
    outer loop
      vertex 57.9739 37.8191 58
      vertex 56 35 58
      vertex 57.7321 37.7189 58
    endloop
  endfacet
  facet normal 0 0 -1
    outer loop
      vertex 56 31 58
      vertex 57.2793 28.5425 58
      vertex 57.0716 28.7019 58
    endloop
  endfacet
  facet normal 0 0 -1
    outer loop
      vertex 57.7321 37.7189 58
      vertex 56 35 58
      vertex 57.5 37.5981 58
    endloop
  endfacet
  facet normal 0 0 -1
    outer loop
      vertex 56 31 58
      vertex 57.0716 28.7019 58
      vertex 56.8787 28.8787 58
    endloop
  endfacet
  facet normal 0 0 -1
    outer loop
      vertex 57.5 37.5981 58
      vertex 56 35 58
      vertex 57.2793 37.4575 58
    endloop
  endfacet
  facet normal 0 0 -1
    outer loop
      vertex 56 31 58
      vertex 56.8787 28.8787 58
      vertex 56.7019 29.0716 58
    endloop
  endfacet
  facet normal 0 0 -1
    outer loop
      vertex 57.2793 37.4575 58
      vertex 56 35 58
      vertex 57.0716 37.2981 58
    endloop
  endfacet
  facet normal 0 0 -1
    outer loop
      vertex 56 31 58
      vertex 56.7019 29.0716 58
      vertex 56.5425 29.2793 58
    endloop
  endfacet
  facet normal 0 0 -1
    outer loop
      vertex 57.0716 37.2981 58
      vertex 56 35 58
      vertex 56.8787 37.1213 58
    endloop
  endfacet
  facet normal 0 0 -1
    outer loop
      vertex 56 31 58
      vertex 56.5425 29.2793 58
      vertex 56.4019 29.5 58
    endloop
  endfacet
  facet normal 0 0 -1
    outer loop
      vertex 56.8787 37.1213 58
      vertex 56 35 58
      vertex 56.7019 36.9284 58
    endloop
  endfacet
  facet normal 0 0 -1
    outer loop
      vertex 56 31 58
      vertex 56.4019 29.5 58
      vertex 56.2811 29.7321 58
    endloop
  endfacet
  facet normal 0 0 -1
    outer loop
      vertex 56.7019 36.9284 58
      vertex 56 35 58
      vertex 56.5425 36.7207 58
    endloop
  endfacet
  facet normal 0 0 -1
    outer loop
      vertex 56 31 58
      vertex 56.2811 29.7321 58
      vertex 56.1809 29.9739 58
    endloop
  endfacet
  facet normal 0 0 -1
    outer loop
      vertex 56.5425 36.7207 58
      vertex 56 35 58
      vertex 56.4019 36.5 58
    endloop
  endfacet
  facet normal 0 0 -1
    outer loop
      vertex 56 31 58
      vertex 56.1809 29.9739 58
      vertex 56.1022 30.2235 58
    endloop
  endfacet
  facet normal 0 0 -1
    outer loop
      vertex 56.4019 36.5 58
      vertex 56 35 58
      vertex 56.2811 36.2679 58
    endloop
  endfacet
  facet normal 0 0 -1
    outer loop
      vertex 56 31 58
      vertex 56.1022 30.2235 58
      vertex 56.0456 30.4791 58
    endloop
  endfacet
  facet normal 0 0 -1
    outer loop
      vertex 56.2811 36.2679 58
      vertex 56 35 58
      vertex 56.1809 36.0261 58
    endloop
  endfacet
  facet normal 0 0 -1
    outer loop
      vertex 56 31 58
      vertex 56.0456 30.4791 58
      vertex 56.0114 30.7385 58
    endloop
  endfacet
  facet normal 0 0 -1
    outer loop
      vertex 56.1809 36.0261 58
      vertex 56 35 58
      vertex 56.1022 35.7765 58
    endloop
  endfacet
  facet normal 0 0 -1
    outer loop
      vertex 56.1022 35.7765 58
      vertex 56 35 58
      vertex 56.0456 35.5209 58
    endloop
  endfacet
  facet normal 0 0 -1
    outer loop
      vertex 56.0456 35.5209 58
      vertex 56 35 58
      vertex 56.0114 35.2615 58
    endloop
  endfacet
  facet normal 0 0 -1
    outer loop
      vertex 241 20 58
      vertex 244 23 58
      vertex 243.989 22.7385 58
    endloop
  endfacet
  facet normal 0 0 -1
    outer loop
      vertex 269 28 58
      vertex 272 31 58
      vertex 271.989 30.7385 58
    endloop
  endfacet
  facet normal -0 0 -1
    outer loop
      vertex 272 31 58
      vertex 269 28 58
      vertex 272 35 58
    endloop
  endfacet
  facet normal 0 0 -1
    outer loop
      vertex 269 28 58
      vertex 271.989 30.7385 58
      vertex 271.954 30.4791 58
    endloop
  endfacet
  facet normal 0 0 -1
    outer loop
      vertex 269 38 58
      vertex 272 35 58
      vertex 269 28 58
    endloop
  endfacet
  facet normal 0 0 -1
    outer loop
      vertex 269 28 58
      vertex 271.954 30.4791 58
      vertex 271.898 30.2235 58
    endloop
  endfacet
  facet normal 0 0 -1
    outer loop
      vertex 272 35 58
      vertex 269 38 58
      vertex 271.989 35.2615 58
    endloop
  endfacet
  facet normal 0 0 -1
    outer loop
      vertex 269 28 58
      vertex 271.898 30.2235 58
      vertex 271.819 29.9739 58
    endloop
  endfacet
  facet normal 0 0 -1
    outer loop
      vertex 271.989 35.2615 58
      vertex 269 38 58
      vertex 271.954 35.5209 58
    endloop
  endfacet
  facet normal 0 0 -1
    outer loop
      vertex 269 28 58
      vertex 271.819 29.9739 58
      vertex 271.719 29.7321 58
    endloop
  endfacet
  facet normal 0 0 -1
    outer loop
      vertex 271.954 35.5209 58
      vertex 269 38 58
      vertex 271.898 35.7765 58
    endloop
  endfacet
  facet normal 0 0 -1
    outer loop
      vertex 269 28 58
      vertex 271.719 29.7321 58
      vertex 271.598 29.5 58
    endloop
  endfacet
  facet normal 0 0 -1
    outer loop
      vertex 271.898 35.7765 58
      vertex 269 38 58
      vertex 271.819 36.0261 58
    endloop
  endfacet
  facet normal 0 0 -1
    outer loop
      vertex 269 28 58
      vertex 271.598 29.5 58
      vertex 271.457 29.2793 58
    endloop
  endfacet
  facet normal 0 0 -1
    outer loop
      vertex 271.819 36.0261 58
      vertex 269 38 58
      vertex 271.719 36.2679 58
    endloop
  endfacet
  facet normal 0 0 -1
    outer loop
      vertex 269 28 58
      vertex 271.457 29.2793 58
      vertex 271.298 29.0716 58
    endloop
  endfacet
  facet normal 0 0 -1
    outer loop
      vertex 271.719 36.2679 58
      vertex 269 38 58
      vertex 271.598 36.5 58
    endloop
  endfacet
  facet normal 0 0 -1
    outer loop
      vertex 269 28 58
      vertex 271.298 29.0716 58
      vertex 271.121 28.8787 58
    endloop
  endfacet
  facet normal 0 0 -1
    outer loop
      vertex 271.598 36.5 58
      vertex 269 38 58
      vertex 271.457 36.7207 58
    endloop
  endfacet
  facet normal 0 0 -1
    outer loop
      vertex 269 28 58
      vertex 271.121 28.8787 58
      vertex 270.928 28.7019 58
    endloop
  endfacet
  facet normal 0 0 -1
    outer loop
      vertex 271.457 36.7207 58
      vertex 269 38 58
      vertex 271.298 36.9284 58
    endloop
  endfacet
  facet normal 0 0 -1
    outer loop
      vertex 269 28 58
      vertex 270.928 28.7019 58
      vertex 270.721 28.5425 58
    endloop
  endfacet
  facet normal 0 0 -1
    outer loop
      vertex 271.298 36.9284 58
      vertex 269 38 58
      vertex 271.121 37.1213 58
    endloop
  endfacet
  facet normal 0 0 -1
    outer loop
      vertex 269 28 58
      vertex 270.721 28.5425 58
      vertex 270.5 28.4019 58
    endloop
  endfacet
  facet normal 0 0 -1
    outer loop
      vertex 271.121 37.1213 58
      vertex 269 38 58
      vertex 270.928 37.2981 58
    endloop
  endfacet
  facet normal 0 0 -1
    outer loop
      vertex 269 28 58
      vertex 270.5 28.4019 58
      vertex 270.268 28.2811 58
    endloop
  endfacet
  facet normal 0 0 -1
    outer loop
      vertex 270.928 37.2981 58
      vertex 269 38 58
      vertex 270.721 37.4575 58
    endloop
  endfacet
  facet normal 0 0 -1
    outer loop
      vertex 269 28 58
      vertex 270.268 28.2811 58
      vertex 270.026 28.1809 58
    endloop
  endfacet
  facet normal 0 0 -1
    outer loop
      vertex 270.721 37.4575 58
      vertex 269 38 58
      vertex 270.5 37.5981 58
    endloop
  endfacet
  facet normal 0 0 -1
    outer loop
      vertex 269 28 58
      vertex 270.026 28.1809 58
      vertex 269.776 28.1022 58
    endloop
  endfacet
  facet normal 0 0 -1
    outer loop
      vertex 270.5 37.5981 58
      vertex 269 38 58
      vertex 270.268 37.7189 58
    endloop
  endfacet
  facet normal 0 0 -1
    outer loop
      vertex 269 28 58
      vertex 269.776 28.1022 58
      vertex 269.521 28.0456 58
    endloop
  endfacet
  facet normal 0 0 -1
    outer loop
      vertex 270.268 37.7189 58
      vertex 269 38 58
      vertex 270.026 37.8191 58
    endloop
  endfacet
  facet normal 0 0 -1
    outer loop
      vertex 269 28 58
      vertex 269.521 28.0456 58
      vertex 269.261 28.0114 58
    endloop
  endfacet
  facet normal 0 0 -1
    outer loop
      vertex 270.026 37.8191 58
      vertex 269 38 58
      vertex 269.776 37.8978 58
    endloop
  endfacet
  facet normal 0 0 -1
    outer loop
      vertex 269.776 37.8978 58
      vertex 269 38 58
      vertex 269.521 37.9544 58
    endloop
  endfacet
  facet normal 0 0 -1
    outer loop
      vertex 269.521 37.9544 58
      vertex 269 38 58
      vertex 269.261 37.9886 58
    endloop
  endfacet
  facet normal 0 0 -1
    outer loop
      vertex 244 28 58
      vertex 269 38 58
      vertex 269 28 58
    endloop
  endfacet
  facet normal 0 0 -1
    outer loop
      vertex 241 20 58
      vertex 243.989 22.7385 58
      vertex 243.954 22.4791 58
    endloop
  endfacet
  facet normal 0 0 -1
    outer loop
      vertex 241 20 58
      vertex 243.954 22.4791 58
      vertex 243.898 22.2235 58
    endloop
  endfacet
  facet normal 0 0 -1
    outer loop
      vertex 241 20 58
      vertex 243.898 22.2235 58
      vertex 243.819 21.9739 58
    endloop
  endfacet
  facet normal 0 0 -1
    outer loop
      vertex 241 20 58
      vertex 243.819 21.9739 58
      vertex 243.719 21.7321 58
    endloop
  endfacet
  facet normal 0 0 -1
    outer loop
      vertex 241 20 58
      vertex 243.719 21.7321 58
      vertex 243.598 21.5 58
    endloop
  endfacet
  facet normal 0 0 -1
    outer loop
      vertex 241 20 58
      vertex 243.598 21.5 58
      vertex 243.457 21.2793 58
    endloop
  endfacet
  facet normal 0 0 -1
    outer loop
      vertex 241 20 58
      vertex 243.457 21.2793 58
      vertex 243.298 21.0716 58
    endloop
  endfacet
  facet normal 0 0 -1
    outer loop
      vertex 241 20 58
      vertex 243.298 21.0716 58
      vertex 243.121 20.8787 58
    endloop
  endfacet
  facet normal 0 0 -1
    outer loop
      vertex 241 20 58
      vertex 243.121 20.8787 58
      vertex 242.928 20.7019 58
    endloop
  endfacet
  facet normal 0 0 -1
    outer loop
      vertex 241 20 58
      vertex 242.928 20.7019 58
      vertex 242.721 20.5425 58
    endloop
  endfacet
  facet normal 0 0 -1
    outer loop
      vertex 241 20 58
      vertex 242.721 20.5425 58
      vertex 242.5 20.4019 58
    endloop
  endfacet
  facet normal 0 0 -1
    outer loop
      vertex 241 20 58
      vertex 242.5 20.4019 58
      vertex 242.268 20.2811 58
    endloop
  endfacet
  facet normal 0 0 -1
    outer loop
      vertex 241 20 58
      vertex 242.268 20.2811 58
      vertex 242.026 20.1809 58
    endloop
  endfacet
  facet normal 0 0 -1
    outer loop
      vertex 241 20 58
      vertex 242.026 20.1809 58
      vertex 241.776 20.1022 58
    endloop
  endfacet
  facet normal 0 0 -1
    outer loop
      vertex 241 20 58
      vertex 241.776 20.1022 58
      vertex 241.521 20.0456 58
    endloop
  endfacet
  facet normal 0 0 -1
    outer loop
      vertex 241 20 58
      vertex 241.521 20.0456 58
      vertex 241.261 20.0114 58
    endloop
  endfacet
  facet normal -0 0 -1
    outer loop
      vertex 244 23 58
      vertex 241 20 58
      vertex 244 28 58
    endloop
  endfacet
  facet normal 0 0 -1
    outer loop
      vertex 202 38 58
      vertex 241 20 58
      vertex 202 20 58
    endloop
  endfacet
  facet normal 0 0 -1
    outer loop
      vertex 241 20 58
      vertex 202 38 58
      vertex 244 28 58
    endloop
  endfacet
  facet normal 0 0 -1
    outer loop
      vertex 244 28 58
      vertex 202 38 58
      vertex 269 38 58
    endloop
  endfacet
  facet normal 0.999116 -0.0420278 -3.7474e-20
    outer loop
      vertex 243.989 22.7385 66
      vertex 244 23 58
      vertex 244 23 66
    endloop
  endfacet
  facet normal 0.999116 -0.0420278 -3.7474e-20
    outer loop
      vertex 244 23 58
      vertex 243.989 22.7385 66
      vertex 243.989 22.7385 58
    endloop
  endfacet
  facet normal 0.130415 -0.991459 0
    outer loop
      vertex 241.261 20.0114 58
      vertex 241.521 20.0456 66
      vertex 241.261 20.0114 66
    endloop
  endfacet
  facet normal 0.130415 -0.991459 0
    outer loop
      vertex 241.521 20.0456 66
      vertex 241.261 20.0114 58
      vertex 241.521 20.0456 58
    endloop
  endfacet
  facet normal -0.537296 -0.843394 0
    outer loop
      vertex 85.2793 20.5425 58
      vertex 85.5 20.4019 66
      vertex 85.2793 20.5425 66
    endloop
  endfacet
  facet normal -0.537296 -0.843394 -0
    outer loop
      vertex 85.5 20.4019 66
      vertex 85.2793 20.5425 58
      vertex 85.5 20.4019 58
    endloop
  endfacet
  facet normal 0.216687 -0.976241 0
    outer loop
      vertex 241.521 20.0456 58
      vertex 241.776 20.1022 66
      vertex 241.521 20.0456 66
    endloop
  endfacet
  facet normal 0.216687 -0.976241 0
    outer loop
      vertex 241.776 20.1022 66
      vertex 241.521 20.0456 58
      vertex 241.776 20.1022 58
    endloop
  endfacet
  facet normal 0.886735 -0.462279 2.58355e-19
    outer loop
      vertex 243.598 21.5 66
      vertex 243.719 21.7321 58
      vertex 243.719 21.7321 66
    endloop
  endfacet
  facet normal 0.886735 -0.462279 2.58355e-19
    outer loop
      vertex 243.719 21.7321 58
      vertex 243.598 21.5 66
      vertex 243.598 21.5 58
    endloop
  endfacet
  facet normal 0 -1 0
    outer loop
      vertex 202 20 58
      vertex 241 20 66
      vertex 202 20 66
    endloop
  endfacet
  facet normal 0 -1 -0
    outer loop
      vertex 241 20 66
      vertex 202 20 58
      vertex 241 20 58
    endloop
  endfacet
  facet normal 0 -1 0
    outer loop
      vertex 87 20 58
      vertex 126 20 66
      vertex 87 20 66
    endloop
  endfacet
  facet normal 0 -1 -0
    outer loop
      vertex 126 20 66
      vertex 87 20 58
      vertex 126 20 58
    endloop
  endfacet
  facet normal 0.924091 -0.382172 -6.05152e-19
    outer loop
      vertex 243.719 21.7321 66
      vertex 243.819 21.9739 58
      vertex 243.819 21.9739 66
    endloop
  endfacet
  facet normal 0.924091 -0.382172 -6.05152e-19
    outer loop
      vertex 243.819 21.9739 58
      vertex 243.719 21.7321 66
      vertex 243.719 21.7321 58
    endloop
  endfacet
  facet normal 0.953386 -0.301753 4.05366e-19
    outer loop
      vertex 243.819 21.9739 66
      vertex 243.898 22.2235 58
      vertex 243.898 22.2235 66
    endloop
  endfacet
  facet normal 0.953386 -0.301753 4.05366e-19
    outer loop
      vertex 243.898 22.2235 58
      vertex 243.819 21.9739 66
      vertex 243.819 21.9739 58
    endloop
  endfacet
  facet normal 0.794043 -0.607862 -1.28954e-18
    outer loop
      vertex 243.298 21.0716 66
      vertex 243.457 21.2793 58
      vertex 243.457 21.2793 66
    endloop
  endfacet
  facet normal 0.794043 -0.607862 -1.28954e-18
    outer loop
      vertex 243.457 21.2793 58
      vertex 243.298 21.0716 66
      vertex 243.298 21.0716 58
    endloop
  endfacet
  facet normal -1 0 0
    outer loop
      vertex 84 23 58
      vertex 84 28 66
      vertex 84 28 58
    endloop
  endfacet
  facet normal -1 -0 0
    outer loop
      vertex 84 28 66
      vertex 84 23 58
      vertex 84 23 66
    endloop
  endfacet
  facet normal 0.842701 -0.538382 2.38242e-20
    outer loop
      vertex 243.457 21.2793 66
      vertex 243.598 21.5 58
      vertex 243.598 21.5 66
    endloop
  endfacet
  facet normal 0.842701 -0.538382 2.38242e-20
    outer loop
      vertex 243.598 21.5 58
      vertex 243.457 21.2793 66
      vertex 243.457 21.2793 58
    endloop
  endfacet
  facet normal -0.300711 -0.953715 0
    outer loop
      vertex 85.9739 20.1809 58
      vertex 86.2235 20.1022 66
      vertex 85.9739 20.1809 66
    endloop
  endfacet
  facet normal -0.300711 -0.953715 -0
    outer loop
      vertex 86.2235 20.1022 66
      vertex 85.9739 20.1809 58
      vertex 86.2235 20.1022 58
    endloop
  endfacet
  facet normal 0.610118 -0.792311 0
    outer loop
      vertex 242.721 20.5425 58
      vertex 242.928 20.7019 66
      vertex 242.721 20.5425 66
    endloop
  endfacet
  facet normal 0.610118 -0.792311 0
    outer loop
      vertex 242.928 20.7019 66
      vertex 242.721 20.5425 58
      vertex 242.928 20.7019 58
    endloop
  endfacet
  facet normal -0.793305 -0.608824 7.90898e-19
    outer loop
      vertex 84.7019 21.0716 58
      vertex 84.5425 21.2793 66
      vertex 84.5425 21.2793 58
    endloop
  endfacet
  facet normal -0.793305 -0.608824 7.90898e-19
    outer loop
      vertex 84.5425 21.2793 66
      vertex 84.7019 21.0716 58
      vertex 84.7019 21.0716 66
    endloop
  endfacet
  facet normal 1 -0 0
    outer loop
      vertex 244 23 66
      vertex 244 28 58
      vertex 244 28 66
    endloop
  endfacet
  facet normal 1 0 0
    outer loop
      vertex 244 28 58
      vertex 244 23 66
      vertex 244 23 58
    endloop
  endfacet
  facet normal -0.675673 -0.737202 0
    outer loop
      vertex 84.8787 20.8787 58
      vertex 85.0716 20.7019 66
      vertex 84.8787 20.8787 66
    endloop
  endfacet
  facet normal -0.675673 -0.737202 -0
    outer loop
      vertex 85.0716 20.7019 66
      vertex 84.8787 20.8787 58
      vertex 85.0716 20.7019 58
    endloop
  endfacet
  facet normal 0.461834 -0.886966 0
    outer loop
      vertex 242.268 20.2811 58
      vertex 242.5 20.4019 66
      vertex 242.268 20.2811 66
    endloop
  endfacet
  facet normal 0.461834 -0.886966 0
    outer loop
      vertex 242.5 20.4019 66
      vertex 242.268 20.2811 58
      vertex 242.5 20.4019 58
    endloop
  endfacet
  facet normal -0.887048 -0.461678 7.57688e-20
    outer loop
      vertex 84.4019 21.5 58
      vertex 84.2811 21.7321 66
      vertex 84.2811 21.7321 58
    endloop
  endfacet
  facet normal -0.887048 -0.461678 7.57688e-20
    outer loop
      vertex 84.2811 21.7321 66
      vertex 84.4019 21.5 58
      vertex 84.4019 21.5 66
    endloop
  endfacet
  facet normal 0.99102 -0.133715 -6.72283e-20
    outer loop
      vertex 243.954 22.4791 66
      vertex 243.989 22.7385 58
      vertex 243.989 22.7385 66
    endloop
  endfacet
  facet normal 0.99102 -0.133715 -6.72283e-20
    outer loop
      vertex 243.989 22.7385 58
      vertex 243.954 22.4791 66
      vertex 243.954 22.4791 58
    endloop
  endfacet
  facet normal -0.843394 -0.537296 -2.08069e-19
    outer loop
      vertex 84.5425 21.2793 58
      vertex 84.4019 21.5 66
      vertex 84.4019 21.5 58
    endloop
  endfacet
  facet normal -0.843394 -0.537296 -2.08069e-19
    outer loop
      vertex 84.4019 21.5 66
      vertex 84.5425 21.2793 58
      vertex 84.5425 21.2793 66
    endloop
  endfacet
  facet normal -0.99142 -0.130712 3.73043e-19
    outer loop
      vertex 84.0456 22.4791 58
      vertex 84.0114 22.7385 66
      vertex 84.0114 22.7385 58
    endloop
  endfacet
  facet normal -0.99142 -0.130712 3.73043e-19
    outer loop
      vertex 84.0114 22.7385 66
      vertex 84.0456 22.4791 58
      vertex 84.0456 22.4791 66
    endloop
  endfacet
  facet normal -0.0435533 -0.999051 0
    outer loop
      vertex 86.7385 20.0114 58
      vertex 87 20 66
      vertex 86.7385 20.0114 66
    endloop
  endfacet
  facet normal -0.0435533 -0.999051 -0
    outer loop
      vertex 87 20 66
      vertex 86.7385 20.0114 58
      vertex 87 20 58
    endloop
  endfacet
  facet normal 0.97683 -0.214016 -1.77207e-19
    outer loop
      vertex 243.898 22.2235 66
      vertex 243.954 22.4791 58
      vertex 243.954 22.4791 66
    endloop
  endfacet
  facet normal 0.97683 -0.214016 -1.77207e-19
    outer loop
      vertex 243.954 22.4791 58
      vertex 243.898 22.2235 66
      vertex 243.898 22.2235 58
    endloop
  endfacet
  facet normal 0.0436366 -0.999047 0
    outer loop
      vertex 241 20 58
      vertex 241.261 20.0114 66
      vertex 241 20 66
    endloop
  endfacet
  facet normal 0.0436366 -0.999047 0
    outer loop
      vertex 241.261 20.0114 66
      vertex 241 20 58
      vertex 241.261 20.0114 58
    endloop
  endfacet
  facet normal -0.976349 -0.216202 -7.98767e-21
    outer loop
      vertex 84.1022 22.2235 58
      vertex 84.0456 22.4791 66
      vertex 84.0456 22.4791 58
    endloop
  endfacet
  facet normal -0.976349 -0.216202 -7.98767e-21
    outer loop
      vertex 84.0456 22.4791 66
      vertex 84.1022 22.2235 58
      vertex 84.1022 22.2235 66
    endloop
  endfacet
  facet normal -0.923821 -0.382824 -3.53488e-19
    outer loop
      vertex 84.2811 21.7321 58
      vertex 84.1809 21.9739 66
      vertex 84.1809 21.9739 58
    endloop
  endfacet
  facet normal -0.923821 -0.382824 -3.53488e-19
    outer loop
      vertex 84.1809 21.9739 66
      vertex 84.2811 21.7321 58
      vertex 84.2811 21.7321 66
    endloop
  endfacet
  facet normal -0.216202 -0.976349 0
    outer loop
      vertex 86.2235 20.1022 58
      vertex 86.4791 20.0456 66
      vertex 86.2235 20.1022 66
    endloop
  endfacet
  facet normal -0.216202 -0.976349 -0
    outer loop
      vertex 86.4791 20.0456 66
      vertex 86.2235 20.1022 58
      vertex 86.4791 20.0456 58
    endloop
  endfacet
  facet normal -0.608824 -0.793305 0
    outer loop
      vertex 85.0716 20.7019 58
      vertex 85.2793 20.5425 66
      vertex 85.0716 20.7019 66
    endloop
  endfacet
  facet normal -0.608824 -0.793305 -0
    outer loop
      vertex 85.2793 20.5425 66
      vertex 85.0716 20.7019 58
      vertex 85.2793 20.5425 58
    endloop
  endfacet
  facet normal 0.675482 -0.737376 0
    outer loop
      vertex 242.928 20.7019 58
      vertex 243.121 20.8787 66
      vertex 242.928 20.7019 66
    endloop
  endfacet
  facet normal 0.675482 -0.737376 0
    outer loop
      vertex 243.121 20.8787 66
      vertex 242.928 20.7019 58
      vertex 243.121 20.8787 58
    endloop
  endfacet
  facet normal -0.953715 -0.300711 7.9921e-19
    outer loop
      vertex 84.1809 21.9739 58
      vertex 84.1022 22.2235 66
      vertex 84.1022 22.2235 58
    endloop
  endfacet
  facet normal -0.953715 -0.300711 7.9921e-19
    outer loop
      vertex 84.1022 22.2235 66
      vertex 84.1809 21.9739 58
      vertex 84.1809 21.9739 66
    endloop
  endfacet
  facet normal 0.300273 -0.953853 0
    outer loop
      vertex 241.776 20.1022 58
      vertex 242.026 20.1809 66
      vertex 241.776 20.1022 66
    endloop
  endfacet
  facet normal 0.300273 -0.953853 0
    outer loop
      vertex 242.026 20.1809 66
      vertex 241.776 20.1022 58
      vertex 242.026 20.1809 58
    endloop
  endfacet
  facet normal 0.536777 -0.843724 0
    outer loop
      vertex 242.5 20.4019 58
      vertex 242.721 20.5425 66
      vertex 242.5 20.4019 66
    endloop
  endfacet
  facet normal 0.536777 -0.843724 0
    outer loop
      vertex 242.721 20.5425 66
      vertex 242.5 20.4019 58
      vertex 242.721 20.5425 58
    endloop
  endfacet
  facet normal 0.736821 -0.676088 -1.08423e-18
    outer loop
      vertex 243.121 20.8787 66
      vertex 243.298 21.0716 58
      vertex 243.298 21.0716 66
    endloop
  endfacet
  facet normal 0.736821 -0.676088 -1.08423e-18
    outer loop
      vertex 243.298 21.0716 58
      vertex 243.121 20.8787 66
      vertex 243.121 20.8787 58
    endloop
  endfacet
  facet normal 0.382554 -0.923933 0
    outer loop
      vertex 242.026 20.1809 58
      vertex 242.268 20.2811 66
      vertex 242.026 20.1809 66
    endloop
  endfacet
  facet normal 0.382554 -0.923933 0
    outer loop
      vertex 242.268 20.2811 66
      vertex 242.026 20.1809 58
      vertex 242.268 20.2811 58
    endloop
  endfacet
  facet normal -0.130712 -0.99142 0
    outer loop
      vertex 86.4791 20.0456 58
      vertex 86.7385 20.0114 66
      vertex 86.4791 20.0456 66
    endloop
  endfacet
  facet normal -0.130712 -0.99142 -0
    outer loop
      vertex 86.7385 20.0114 66
      vertex 86.4791 20.0456 58
      vertex 86.7385 20.0114 58
    endloop
  endfacet
  facet normal -0.737202 -0.675673 1.34618e-18
    outer loop
      vertex 84.8787 20.8787 58
      vertex 84.7019 21.0716 66
      vertex 84.7019 21.0716 58
    endloop
  endfacet
  facet normal -0.737202 -0.675673 1.34618e-18
    outer loop
      vertex 84.7019 21.0716 66
      vertex 84.8787 20.8787 58
      vertex 84.8787 20.8787 66
    endloop
  endfacet
  facet normal -0.461678 -0.887048 0
    outer loop
      vertex 85.5 20.4019 58
      vertex 85.7321 20.2811 66
      vertex 85.5 20.4019 66
    endloop
  endfacet
  facet normal -0.461678 -0.887048 -0
    outer loop
      vertex 85.7321 20.2811 66
      vertex 85.5 20.4019 58
      vertex 85.7321 20.2811 58
    endloop
  endfacet
  facet normal -0.999051 -0.0435533 8.58891e-20
    outer loop
      vertex 84.0114 22.7385 58
      vertex 84 23 66
      vertex 84 23 58
    endloop
  endfacet
  facet normal -0.999051 -0.0435533 8.58891e-20
    outer loop
      vertex 84 23 66
      vertex 84.0114 22.7385 58
      vertex 84.0114 22.7385 66
    endloop
  endfacet
  facet normal -0.382824 -0.923821 0
    outer loop
      vertex 85.7321 20.2811 58
      vertex 85.9739 20.1809 66
      vertex 85.7321 20.2811 66
    endloop
  endfacet
  facet normal -0.382824 -0.923821 -0
    outer loop
      vertex 85.9739 20.1809 66
      vertex 85.7321 20.2811 58
      vertex 85.9739 20.1809 58
    endloop
  endfacet
  facet normal 0 0 1
    outer loop
      vertex 241 20 66
      vertex 244 23 66
      vertex 244 28 66
    endloop
  endfacet
  facet normal 0 0 1
    outer loop
      vertex 244 23 66
      vertex 241 20 66
      vertex 243.989 22.7385 66
    endloop
  endfacet
  facet normal 0 0 1
    outer loop
      vertex 243.989 22.7385 66
      vertex 241 20 66
      vertex 243.954 22.4791 66
    endloop
  endfacet
  facet normal 0 0 1
    outer loop
      vertex 243.954 22.4791 66
      vertex 241 20 66
      vertex 243.898 22.2235 66
    endloop
  endfacet
  facet normal 0 0 1
    outer loop
      vertex 243.898 22.2235 66
      vertex 241 20 66
      vertex 243.819 21.9739 66
    endloop
  endfacet
  facet normal 0 0 1
    outer loop
      vertex 243.819 21.9739 66
      vertex 241 20 66
      vertex 243.719 21.7321 66
    endloop
  endfacet
  facet normal 0 0 1
    outer loop
      vertex 243.719 21.7321 66
      vertex 241 20 66
      vertex 243.598 21.5 66
    endloop
  endfacet
  facet normal 0 0 1
    outer loop
      vertex 243.598 21.5 66
      vertex 241 20 66
      vertex 243.457 21.2793 66
    endloop
  endfacet
  facet normal 0 0 1
    outer loop
      vertex 243.457 21.2793 66
      vertex 241 20 66
      vertex 243.298 21.0716 66
    endloop
  endfacet
  facet normal 0 0 1
    outer loop
      vertex 243.298 21.0716 66
      vertex 241 20 66
      vertex 243.121 20.8787 66
    endloop
  endfacet
  facet normal 0 0 1
    outer loop
      vertex 243.121 20.8787 66
      vertex 241 20 66
      vertex 242.928 20.7019 66
    endloop
  endfacet
  facet normal 0 0 1
    outer loop
      vertex 242.928 20.7019 66
      vertex 241 20 66
      vertex 242.721 20.5425 66
    endloop
  endfacet
  facet normal 0 0 1
    outer loop
      vertex 242.721 20.5425 66
      vertex 241 20 66
      vertex 242.5 20.4019 66
    endloop
  endfacet
  facet normal 0 0 1
    outer loop
      vertex 242.5 20.4019 66
      vertex 241 20 66
      vertex 242.268 20.2811 66
    endloop
  endfacet
  facet normal 0 0 1
    outer loop
      vertex 242.268 20.2811 66
      vertex 241 20 66
      vertex 242.026 20.1809 66
    endloop
  endfacet
  facet normal 0 0 1
    outer loop
      vertex 242.026 20.1809 66
      vertex 241 20 66
      vertex 241.776 20.1022 66
    endloop
  endfacet
  facet normal 0 0 1
    outer loop
      vertex 241.776 20.1022 66
      vertex 241 20 66
      vertex 241.521 20.0456 66
    endloop
  endfacet
  facet normal 0 0 1
    outer loop
      vertex 241.521 20.0456 66
      vertex 241 20 66
      vertex 241.261 20.0114 66
    endloop
  endfacet
  facet normal -0 0 1
    outer loop
      vertex 202 28 66
      vertex 241 20 66
      vertex 244 28 66
    endloop
  endfacet
  facet normal 0 0 1
    outer loop
      vertex 241 20 66
      vertex 202 28 66
      vertex 202 20 66
    endloop
  endfacet
  facet normal 0 0 1
    outer loop
      vertex 126 28 66
      vertex 87 20 66
      vertex 126 20 66
    endloop
  endfacet
  facet normal -0 0 1
    outer loop
      vertex 84 28 66
      vertex 87 20 66
      vertex 126 28 66
    endloop
  endfacet
  facet normal -0 0 1
    outer loop
      vertex 84 23 66
      vertex 87 20 66
      vertex 84 28 66
    endloop
  endfacet
  facet normal 0 0 1
    outer loop
      vertex 87 20 66
      vertex 84 23 66
      vertex 86.7385 20.0114 66
    endloop
  endfacet
  facet normal 0 0 1
    outer loop
      vertex 86.7385 20.0114 66
      vertex 84 23 66
      vertex 86.4791 20.0456 66
    endloop
  endfacet
  facet normal 0 0 1
    outer loop
      vertex 86.4791 20.0456 66
      vertex 84 23 66
      vertex 86.2235 20.1022 66
    endloop
  endfacet
  facet normal 0 0 1
    outer loop
      vertex 86.2235 20.1022 66
      vertex 84 23 66
      vertex 85.9739 20.1809 66
    endloop
  endfacet
  facet normal 0 0 1
    outer loop
      vertex 85.9739 20.1809 66
      vertex 84 23 66
      vertex 85.7321 20.2811 66
    endloop
  endfacet
  facet normal 0 0 1
    outer loop
      vertex 85.7321 20.2811 66
      vertex 84 23 66
      vertex 85.5 20.4019 66
    endloop
  endfacet
  facet normal 0 0 1
    outer loop
      vertex 85.5 20.4019 66
      vertex 84 23 66
      vertex 85.2793 20.5425 66
    endloop
  endfacet
  facet normal 0 0 1
    outer loop
      vertex 85.2793 20.5425 66
      vertex 84 23 66
      vertex 85.0716 20.7019 66
    endloop
  endfacet
  facet normal 0 0 1
    outer loop
      vertex 85.0716 20.7019 66
      vertex 84 23 66
      vertex 84.8787 20.8787 66
    endloop
  endfacet
  facet normal 0 0 1
    outer loop
      vertex 84.8787 20.8787 66
      vertex 84 23 66
      vertex 84.7019 21.0716 66
    endloop
  endfacet
  facet normal 0 0 1
    outer loop
      vertex 84.7019 21.0716 66
      vertex 84 23 66
      vertex 84.5425 21.2793 66
    endloop
  endfacet
  facet normal 0 0 1
    outer loop
      vertex 84.5425 21.2793 66
      vertex 84 23 66
      vertex 84.4019 21.5 66
    endloop
  endfacet
  facet normal 0 0 1
    outer loop
      vertex 84.4019 21.5 66
      vertex 84 23 66
      vertex 84.2811 21.7321 66
    endloop
  endfacet
  facet normal 0 0 1
    outer loop
      vertex 84.1809 21.9739 66
      vertex 84 23 66
      vertex 84.1022 22.2235 66
    endloop
  endfacet
  facet normal 0 0 1
    outer loop
      vertex 84.1022 22.2235 66
      vertex 84 23 66
      vertex 84.0456 22.4791 66
    endloop
  endfacet
  facet normal 0 0 1
    outer loop
      vertex 84.2811 21.7321 66
      vertex 84 23 66
      vertex 84.1809 21.9739 66
    endloop
  endfacet
  facet normal 0 0 1
    outer loop
      vertex 84.0456 22.4791 66
      vertex 84 23 66
      vertex 84.0114 22.7385 66
    endloop
  endfacet
  facet normal -1 0 0
    outer loop
      vertex 202 38 58
      vertex 202 28 66
      vertex 202 38 73
    endloop
  endfacet
  facet normal -1 0 0
    outer loop
      vertex 202 20 58
      vertex 202 28 66
      vertex 202 38 58
    endloop
  endfacet
  facet normal -1 -0 0
    outer loop
      vertex 202 28 66
      vertex 202 20 58
      vertex 202 20 66
    endloop
  endfacet
  facet normal -1 -0 0
    outer loop
      vertex 202 38 73
      vertex 202 28 66
      vertex 202 28 73
    endloop
  endfacet
  facet normal 1 0 0
    outer loop
      vertex 126 28 66
      vertex 126 38 73
      vertex 126 28 73
    endloop
  endfacet
  facet normal 1 0 0
    outer loop
      vertex 126 38 73
      vertex 126 28 66
      vertex 126 38 58
    endloop
  endfacet
  facet normal 1 0 0
    outer loop
      vertex 126 20 58
      vertex 126 28 66
      vertex 126 20 66
    endloop
  endfacet
  facet normal 1 0 0
    outer loop
      vertex 126 28 66
      vertex 126 20 58
      vertex 126 38 58
    endloop
  endfacet
endsolid OpenSCAD_Model
